<svg width="699" height="22" viewBox="0 0 699 22" fill="none" xmlns="http://www.w3.org/2000/svg">
<path d="M2.42 0.0799987L2.2 4.06H0.94L0.7 0.0799987H2.42ZM5.12 0.0799987L4.9 4.06H3.64L3.4 0.0799987H5.12ZM21.2919 2.06V3.54H17.4919V16H15.6719V3.54H11.8519V2.06H21.2919ZM28.9722 4.84C29.7989 4.84 30.5455 5.02 31.2122 5.38C31.8789 5.72667 32.3989 6.25333 32.7722 6.96C33.1589 7.66667 33.3522 8.52667 33.3522 9.54V16H31.5522V9.8C31.5522 8.70667 31.2789 7.87333 30.7322 7.3C30.1855 6.71333 29.4389 6.42 28.4922 6.42C27.5322 6.42 26.7655 6.72 26.1922 7.32C25.6322 7.92 25.3522 8.79333 25.3522 9.94V16H23.5322V1.2H25.3522V6.6C25.7122 6.04 26.2055 5.60667 26.8322 5.3C27.4722 4.99333 28.1855 4.84 28.9722 4.84ZM46.3252 10.1C46.3252 10.4467 46.3052 10.8133 46.2652 11.2H37.5052C37.5718 12.28 37.9385 13.1267 38.6052 13.74C39.2852 14.34 40.1052 14.64 41.0652 14.64C41.8518 14.64 42.5052 14.46 43.0252 14.1C43.5585 13.7267 43.9318 13.2333 44.1452 12.62H46.1052C45.8118 13.6733 45.2252 14.5333 44.3452 15.2C43.4652 15.8533 42.3718 16.18 41.0652 16.18C40.0252 16.18 39.0918 15.9467 38.2652 15.48C37.4518 15.0133 36.8118 14.3533 36.3452 13.5C35.8785 12.6333 35.6452 11.6333 35.6452 10.5C35.6452 9.36667 35.8718 8.37333 36.3252 7.52C36.7785 6.66667 37.4118 6.01333 38.2252 5.56C39.0518 5.09333 39.9985 4.86 41.0652 4.86C42.1052 4.86 43.0252 5.08667 43.8252 5.54C44.6252 5.99333 45.2385 6.62 45.6652 7.42C46.1052 8.20667 46.3252 9.1 46.3252 10.1ZM44.4452 9.72C44.4452 9.02667 44.2918 8.43333 43.9852 7.94C43.6785 7.43333 43.2585 7.05333 42.7252 6.8C42.2052 6.53333 41.6252 6.4 40.9852 6.4C40.0652 6.4 39.2785 6.69333 38.6252 7.28C37.9852 7.86667 37.6185 8.68 37.5252 9.72H44.4452ZM55.8795 6.82C56.1995 6.19333 56.6529 5.70667 57.2395 5.36C57.8395 5.01333 58.5662 4.84 59.4195 4.84V6.72H58.9395C56.8995 6.72 55.8795 7.82667 55.8795 10.04V16H54.0595V5.04H55.8795V6.82ZM62.4605 3.26C62.1138 3.26 61.8205 3.14 61.5805 2.9C61.3405 2.66 61.2205 2.36667 61.2205 2.02C61.2205 1.67333 61.3405 1.38 61.5805 1.14C61.8205 0.899999 62.1138 0.779999 62.4605 0.779999C62.7938 0.779999 63.0738 0.899999 63.3005 1.14C63.5405 1.38 63.6605 1.67333 63.6605 2.02C63.6605 2.36667 63.5405 2.66 63.3005 2.9C63.0738 3.14 62.7938 3.26 62.4605 3.26ZM63.3405 5.04V16H61.5205V5.04H63.3405ZM70.9623 4.86C71.909 4.86 72.7357 5.06667 73.4423 5.48C74.1623 5.89333 74.6957 6.41333 75.0423 7.04V5.04H76.8823V16.24C76.8823 17.24 76.669 18.1267 76.2423 18.9C75.8157 19.6867 75.2023 20.3 74.4023 20.74C73.6157 21.18 72.6957 21.4 71.6423 21.4C70.2023 21.4 69.0023 21.06 68.0423 20.38C67.0823 19.7 66.5157 18.7733 66.3423 17.6H68.1423C68.3423 18.2667 68.7557 18.8 69.3823 19.2C70.009 19.6133 70.7623 19.82 71.6423 19.82C72.6423 19.82 73.4557 19.5067 74.0823 18.88C74.7223 18.2533 75.0423 17.3733 75.0423 16.24V13.94C74.6823 14.58 74.149 15.1133 73.4423 15.54C72.7357 15.9667 71.909 16.18 70.9623 16.18C69.989 16.18 69.1023 15.94 68.3023 15.46C67.5157 14.98 66.8957 14.3067 66.4423 13.44C65.989 12.5733 65.7623 11.5867 65.7623 10.48C65.7623 9.36 65.989 8.38 66.4423 7.54C66.8957 6.68667 67.5157 6.02667 68.3023 5.56C69.1023 5.09333 69.989 4.86 70.9623 4.86ZM75.0423 10.5C75.0423 9.67333 74.8757 8.95333 74.5423 8.34C74.209 7.72667 73.7557 7.26 73.1823 6.94C72.6223 6.60667 72.0023 6.44 71.3223 6.44C70.6423 6.44 70.0223 6.6 69.4623 6.92C68.9023 7.24 68.4557 7.70667 68.1223 8.32C67.789 8.93333 67.6223 9.65333 67.6223 10.48C67.6223 11.32 67.789 12.0533 68.1223 12.68C68.4557 13.2933 68.9023 13.7667 69.4623 14.1C70.0223 14.42 70.6423 14.58 71.3223 14.58C72.0023 14.58 72.6223 14.42 73.1823 14.1C73.7557 13.7667 74.209 13.2933 74.5423 12.68C74.8757 12.0533 75.0423 11.3267 75.0423 10.5ZM85.398 4.84C86.2246 4.84 86.9713 5.02 87.638 5.38C88.3046 5.72667 88.8246 6.25333 89.198 6.96C89.5846 7.66667 89.778 8.52667 89.778 9.54V16H87.978V9.8C87.978 8.70667 87.7046 7.87333 87.158 7.3C86.6113 6.71333 85.8646 6.42 84.918 6.42C83.958 6.42 83.1913 6.72 82.618 7.32C82.058 7.92 81.778 8.79333 81.778 9.94V16H79.958V1.2H81.778V6.6C82.138 6.04 82.6313 5.60667 83.258 5.3C83.898 4.99333 84.6113 4.84 85.398 4.84ZM94.9709 6.54V13C94.9709 13.5333 95.0843 13.9133 95.3109 14.14C95.5376 14.3533 95.9309 14.46 96.4909 14.46H97.8309V16H96.1909C95.1776 16 94.4176 15.7667 93.9109 15.3C93.4043 14.8333 93.1509 14.0667 93.1509 13V6.54H91.7309V5.04H93.1509V2.28H94.9709V5.04H97.8309V6.54H94.9709ZM107.588 6.54V13C107.588 13.5333 107.701 13.9133 107.928 14.14C108.155 14.3533 108.548 14.46 109.108 14.46H110.448V16H108.808C107.795 16 107.035 15.7667 106.528 15.3C106.021 14.8333 105.768 14.0667 105.768 13V6.54H104.348V5.04H105.768V2.28H107.588V5.04H110.448V6.54H107.588ZM117.433 16.18C116.407 16.18 115.473 15.9467 114.633 15.48C113.807 15.0133 113.153 14.3533 112.673 13.5C112.207 12.6333 111.973 11.6333 111.973 10.5C111.973 9.38 112.213 8.39333 112.693 7.54C113.187 6.67333 113.853 6.01333 114.693 5.56C115.533 5.09333 116.473 4.86 117.513 4.86C118.553 4.86 119.493 5.09333 120.333 5.56C121.173 6.01333 121.833 6.66667 122.313 7.52C122.807 8.37333 123.053 9.36667 123.053 10.5C123.053 11.6333 122.8 12.6333 122.293 13.5C121.8 14.3533 121.127 15.0133 120.273 15.48C119.42 15.9467 118.473 16.18 117.433 16.18ZM117.433 14.58C118.087 14.58 118.7 14.4267 119.273 14.12C119.847 13.8133 120.307 13.3533 120.653 12.74C121.013 12.1267 121.193 11.38 121.193 10.5C121.193 9.62 121.02 8.87333 120.673 8.26C120.327 7.64667 119.873 7.19333 119.313 6.9C118.753 6.59333 118.147 6.44 117.493 6.44C116.827 6.44 116.213 6.59333 115.653 6.9C115.107 7.19333 114.667 7.64667 114.333 8.26C114 8.87333 113.833 9.62 113.833 10.5C113.833 11.3933 113.993 12.1467 114.313 12.76C114.647 13.3733 115.087 13.8333 115.633 14.14C116.18 14.4333 116.78 14.58 117.433 14.58ZM134.858 14.32L138.258 5.04H140.198L135.898 16H133.778L129.478 5.04H131.438L134.858 14.32ZM146.769 16.18C145.743 16.18 144.809 15.9467 143.969 15.48C143.143 15.0133 142.489 14.3533 142.009 13.5C141.543 12.6333 141.309 11.6333 141.309 10.5C141.309 9.38 141.549 8.39333 142.029 7.54C142.523 6.67333 143.189 6.01333 144.029 5.56C144.869 5.09333 145.809 4.86 146.849 4.86C147.889 4.86 148.829 5.09333 149.669 5.56C150.509 6.01333 151.169 6.66667 151.649 7.52C152.143 8.37333 152.389 9.36667 152.389 10.5C152.389 11.6333 152.136 12.6333 151.629 13.5C151.136 14.3533 150.463 15.0133 149.609 15.48C148.756 15.9467 147.809 16.18 146.769 16.18ZM146.769 14.58C147.423 14.58 148.036 14.4267 148.609 14.12C149.183 13.8133 149.643 13.3533 149.989 12.74C150.349 12.1267 150.529 11.38 150.529 10.5C150.529 9.62 150.356 8.87333 150.009 8.26C149.663 7.64667 149.209 7.19333 148.649 6.9C148.089 6.59333 147.483 6.44 146.829 6.44C146.163 6.44 145.549 6.59333 144.989 6.9C144.443 7.19333 144.003 7.64667 143.669 8.26C143.336 8.87333 143.169 9.62 143.169 10.5C143.169 11.3933 143.329 12.1467 143.649 12.76C143.983 13.3733 144.423 13.8333 144.969 14.14C145.516 14.4333 146.116 14.58 146.769 14.58ZM157.002 6.54V13C157.002 13.5333 157.116 13.9133 157.342 14.14C157.569 14.3533 157.962 14.46 158.522 14.46H159.862V16H158.222C157.209 16 156.449 15.7667 155.942 15.3C155.436 14.8333 155.182 14.0667 155.182 13V6.54H153.762V5.04H155.182V2.28H157.002V5.04H159.862V6.54H157.002ZM172.067 10.1C172.067 10.4467 172.047 10.8133 172.007 11.2H163.247C163.314 12.28 163.681 13.1267 164.347 13.74C165.027 14.34 165.847 14.64 166.807 14.64C167.594 14.64 168.247 14.46 168.767 14.1C169.301 13.7267 169.674 13.2333 169.887 12.62H171.847C171.554 13.6733 170.967 14.5333 170.087 15.2C169.207 15.8533 168.114 16.18 166.807 16.18C165.767 16.18 164.834 15.9467 164.007 15.48C163.194 15.0133 162.554 14.3533 162.087 13.5C161.621 12.6333 161.387 11.6333 161.387 10.5C161.387 9.36667 161.614 8.37333 162.067 7.52C162.521 6.66667 163.154 6.01333 163.967 5.56C164.794 5.09333 165.741 4.86 166.807 4.86C167.847 4.86 168.767 5.08667 169.567 5.54C170.367 5.99333 170.981 6.62 171.407 7.42C171.847 8.20667 172.067 9.1 172.067 10.1ZM170.187 9.72C170.187 9.02667 170.034 8.43333 169.727 7.94C169.421 7.43333 169.001 7.05333 168.467 6.8C167.947 6.53333 167.367 6.4 166.727 6.4C165.807 6.4 165.021 6.69333 164.367 7.28C163.727 7.86667 163.361 8.68 163.267 9.72H170.187ZM180.742 3.26C180.395 3.26 180.102 3.14 179.862 2.9C179.622 2.66 179.502 2.36667 179.502 2.02C179.502 1.67333 179.622 1.38 179.862 1.14C180.102 0.899999 180.395 0.779999 180.742 0.779999C181.075 0.779999 181.355 0.899999 181.582 1.14C181.822 1.38 181.942 1.67333 181.942 2.02C181.942 2.36667 181.822 2.66 181.582 2.9C181.355 3.14 181.075 3.26 180.742 3.26ZM181.622 5.04V16H179.802V5.04H181.622ZM188.604 16.18C187.764 16.18 187.01 16.04 186.344 15.76C185.677 15.4667 185.15 15.0667 184.764 14.56C184.377 14.04 184.164 13.4467 184.124 12.78H186.004C186.057 13.3267 186.31 13.7733 186.764 14.12C187.23 14.4667 187.837 14.64 188.584 14.64C189.277 14.64 189.824 14.4867 190.224 14.18C190.624 13.8733 190.824 13.4867 190.824 13.02C190.824 12.54 190.61 12.1867 190.184 11.96C189.757 11.72 189.097 11.4867 188.204 11.26C187.39 11.0467 186.724 10.8333 186.204 10.62C185.697 10.3933 185.257 10.0667 184.884 9.64C184.524 9.2 184.344 8.62667 184.344 7.92C184.344 7.36 184.51 6.84667 184.844 6.38C185.177 5.91333 185.65 5.54667 186.264 5.28C186.877 5 187.577 4.86 188.364 4.86C189.577 4.86 190.557 5.16667 191.304 5.78C192.05 6.39333 192.45 7.23333 192.504 8.3H190.684C190.644 7.72667 190.41 7.26667 189.984 6.92C189.57 6.57333 189.01 6.4 188.304 6.4C187.65 6.4 187.13 6.54 186.744 6.82C186.357 7.1 186.164 7.46667 186.164 7.92C186.164 8.28 186.277 8.58 186.504 8.82C186.744 9.04667 187.037 9.23333 187.384 9.38C187.744 9.51333 188.237 9.66667 188.864 9.84C189.65 10.0533 190.29 10.2667 190.784 10.48C191.277 10.68 191.697 10.9867 192.044 11.4C192.404 11.8133 192.59 12.3533 192.604 13.02C192.604 13.62 192.437 14.16 192.104 14.64C191.77 15.12 191.297 15.5 190.684 15.78C190.084 16.0467 189.39 16.18 188.604 16.18ZM205.845 4.84C207.178 4.84 208.258 5.24667 209.085 6.06C209.912 6.86 210.325 8.02 210.325 9.54V16H208.525V9.8C208.525 8.70667 208.252 7.87333 207.705 7.3C207.158 6.71333 206.412 6.42 205.465 6.42C204.505 6.42 203.738 6.72 203.165 7.32C202.605 7.92 202.325 8.79333 202.325 9.94V16H200.505V5.04H202.325V6.6C202.685 6.04 203.172 5.60667 203.785 5.3C204.412 4.99333 205.098 4.84 205.845 4.84ZM218.078 16.18C217.051 16.18 216.118 15.9467 215.278 15.48C214.451 15.0133 213.798 14.3533 213.318 13.5C212.851 12.6333 212.618 11.6333 212.618 10.5C212.618 9.38 212.858 8.39333 213.338 7.54C213.831 6.67333 214.498 6.01333 215.338 5.56C216.178 5.09333 217.118 4.86 218.158 4.86C219.198 4.86 220.138 5.09333 220.978 5.56C221.818 6.01333 222.478 6.66667 222.958 7.52C223.451 8.37333 223.698 9.36667 223.698 10.5C223.698 11.6333 223.444 12.6333 222.938 13.5C222.444 14.3533 221.771 15.0133 220.918 15.48C220.064 15.9467 219.118 16.18 218.078 16.18ZM218.078 14.58C218.731 14.58 219.344 14.4267 219.918 14.12C220.491 13.8133 220.951 13.3533 221.298 12.74C221.658 12.1267 221.838 11.38 221.838 10.5C221.838 9.62 221.664 8.87333 221.318 8.26C220.971 7.64667 220.518 7.19333 219.958 6.9C219.398 6.59333 218.791 6.44 218.138 6.44C217.471 6.44 216.858 6.59333 216.298 6.9C215.751 7.19333 215.311 7.64667 214.978 8.26C214.644 8.87333 214.478 9.62 214.478 10.5C214.478 11.3933 214.638 12.1467 214.958 12.76C215.291 13.3733 215.731 13.8333 216.278 14.14C216.824 14.4333 217.424 14.58 218.078 14.58ZM228.311 6.54V13C228.311 13.5333 228.424 13.9133 228.651 14.14C228.877 14.3533 229.271 14.46 229.831 14.46H231.171V16H229.531C228.517 16 227.757 15.7667 227.251 15.3C226.744 14.8333 226.491 14.0667 226.491 13V6.54H225.071V5.04H226.491V2.28H228.311V5.04H231.171V6.54H228.311ZM239.688 3.26C239.341 3.26 239.048 3.14 238.808 2.9C238.581 2.66 238.468 2.36667 238.468 2.02C238.468 1.67333 238.581 1.38 238.808 1.14C239.048 0.899999 239.341 0.779999 239.688 0.779999C240.035 0.779999 240.321 0.899999 240.548 1.14C240.788 1.38 240.908 1.67333 240.908 2.02C240.908 2.36667 240.788 2.66 240.548 2.9C240.321 3.14 240.035 3.26 239.688 3.26ZM240.588 18.38C240.588 19.3533 240.341 20.0667 239.848 20.52C239.355 20.9733 238.635 21.2 237.688 21.2H236.628V19.66H237.388C237.895 19.66 238.248 19.56 238.448 19.36C238.661 19.16 238.768 18.82 238.768 18.34V5.04H240.588V18.38ZM253.389 5.04V16H251.569V14.38C251.222 14.94 250.736 15.38 250.109 15.7C249.496 16.0067 248.816 16.16 248.069 16.16C247.216 16.16 246.449 15.9867 245.769 15.64C245.089 15.28 244.549 14.7467 244.149 14.04C243.762 13.3333 243.569 12.4733 243.569 11.46V5.04H245.369V11.22C245.369 12.3 245.642 13.1333 246.189 13.72C246.736 14.2933 247.482 14.58 248.429 14.58C249.402 14.58 250.169 14.28 250.729 13.68C251.289 13.08 251.569 12.2067 251.569 11.06V5.04H253.389ZM260.342 16.18C259.502 16.18 258.749 16.04 258.082 15.76C257.415 15.4667 256.889 15.0667 256.502 14.56C256.115 14.04 255.902 13.4467 255.862 12.78H257.742C257.795 13.3267 258.049 13.7733 258.502 14.12C258.969 14.4667 259.575 14.64 260.322 14.64C261.015 14.64 261.562 14.4867 261.962 14.18C262.362 13.8733 262.562 13.4867 262.562 13.02C262.562 12.54 262.349 12.1867 261.922 11.96C261.495 11.72 260.835 11.4867 259.942 11.26C259.129 11.0467 258.462 10.8333 257.942 10.62C257.435 10.3933 256.995 10.0667 256.622 9.64C256.262 9.2 256.082 8.62667 256.082 7.92C256.082 7.36 256.249 6.84667 256.582 6.38C256.915 5.91333 257.389 5.54667 258.002 5.28C258.615 5 259.315 4.86 260.102 4.86C261.315 4.86 262.295 5.16667 263.042 5.78C263.789 6.39333 264.189 7.23333 264.242 8.3H262.422C262.382 7.72667 262.149 7.26667 261.722 6.92C261.309 6.57333 260.749 6.4 260.042 6.4C259.389 6.4 258.869 6.54 258.482 6.82C258.095 7.1 257.902 7.46667 257.902 7.92C257.902 8.28 258.015 8.58 258.242 8.82C258.482 9.04667 258.775 9.23333 259.122 9.38C259.482 9.51333 259.975 9.66667 260.602 9.84C261.389 10.0533 262.029 10.2667 262.522 10.48C263.015 10.68 263.435 10.9867 263.782 11.4C264.142 11.8133 264.329 12.3533 264.342 13.02C264.342 13.62 264.175 14.16 263.842 14.64C263.509 15.12 263.035 15.5 262.422 15.78C261.822 16.0467 261.129 16.18 260.342 16.18ZM269.131 6.54V13C269.131 13.5333 269.244 13.9133 269.471 14.14C269.698 14.3533 270.091 14.46 270.651 14.46H271.991V16H270.351C269.338 16 268.578 15.7667 268.071 15.3C267.564 14.8333 267.311 14.0667 267.311 13V6.54H265.891V5.04H267.311V2.28H269.131V5.04H271.991V6.54H269.131ZM278.848 10.48C278.848 9.36 279.075 8.38 279.528 7.54C279.982 6.68667 280.602 6.02667 281.388 5.56C282.188 5.09333 283.075 4.86 284.048 4.86C285.008 4.86 285.842 5.06667 286.548 5.48C287.255 5.89333 287.782 6.41333 288.128 7.04V5.04H289.968V16H288.128V13.96C287.768 14.6 287.228 15.1333 286.508 15.56C285.802 15.9733 284.975 16.18 284.028 16.18C283.055 16.18 282.175 15.94 281.388 15.46C280.602 14.98 279.982 14.3067 279.528 13.44C279.075 12.5733 278.848 11.5867 278.848 10.48ZM288.128 10.5C288.128 9.67333 287.962 8.95333 287.628 8.34C287.295 7.72667 286.842 7.26 286.268 6.94C285.708 6.60667 285.088 6.44 284.408 6.44C283.728 6.44 283.108 6.6 282.548 6.92C281.988 7.24 281.542 7.70667 281.208 8.32C280.875 8.93333 280.708 9.65333 280.708 10.48C280.708 11.32 280.875 12.0533 281.208 12.68C281.542 13.2933 281.988 13.7667 282.548 14.1C283.108 14.42 283.728 14.58 284.408 14.58C285.088 14.58 285.708 14.42 286.268 14.1C286.842 13.7667 287.295 13.2933 287.628 12.68C287.962 12.0533 288.128 11.3267 288.128 10.5ZM300.196 7.06C300.556 6.43333 301.089 5.91333 301.796 5.5C302.516 5.07333 303.349 4.86 304.296 4.86C305.269 4.86 306.149 5.09333 306.936 5.56C307.736 6.02667 308.363 6.68667 308.816 7.54C309.269 8.38 309.496 9.36 309.496 10.48C309.496 11.5867 309.269 12.5733 308.816 13.44C308.363 14.3067 307.736 14.98 306.936 15.46C306.149 15.94 305.269 16.18 304.296 16.18C303.363 16.18 302.536 15.9733 301.816 15.56C301.109 15.1333 300.569 14.6067 300.196 13.98V21.2H298.376V5.04H300.196V7.06ZM307.636 10.48C307.636 9.65333 307.469 8.93333 307.136 8.32C306.803 7.70667 306.349 7.24 305.776 6.92C305.216 6.6 304.596 6.44 303.916 6.44C303.249 6.44 302.629 6.60667 302.056 6.94C301.496 7.26 301.043 7.73333 300.696 8.36C300.363 8.97333 300.196 9.68667 300.196 10.5C300.196 11.3267 300.363 12.0533 300.696 12.68C301.043 13.2933 301.496 13.7667 302.056 14.1C302.629 14.42 303.249 14.58 303.916 14.58C304.596 14.58 305.216 14.42 305.776 14.1C306.349 13.7667 306.803 13.2933 307.136 12.68C307.469 12.0533 307.636 11.32 307.636 10.48ZM313.712 6.82C314.032 6.19333 314.485 5.70667 315.072 5.36C315.672 5.01333 316.398 4.84 317.252 4.84V6.72H316.772C314.732 6.72 313.712 7.82667 313.712 10.04V16H311.892V5.04H313.712V6.82ZM320.293 3.26C319.946 3.26 319.653 3.14 319.413 2.9C319.173 2.66 319.053 2.36667 319.053 2.02C319.053 1.67333 319.173 1.38 319.413 1.14C319.653 0.899999 319.946 0.779999 320.293 0.779999C320.626 0.779999 320.906 0.899999 321.133 1.14C321.373 1.38 321.493 1.67333 321.493 2.02C321.493 2.36667 321.373 2.66 321.133 2.9C320.906 3.14 320.626 3.26 320.293 3.26ZM321.173 5.04V16H319.353V5.04H321.173ZM328.354 14.32L331.754 5.04H333.694L329.394 16H327.274L322.974 5.04H324.934L328.354 14.32ZM336.425 3.26C336.079 3.26 335.785 3.14 335.545 2.9C335.305 2.66 335.185 2.36667 335.185 2.02C335.185 1.67333 335.305 1.38 335.545 1.14C335.785 0.899999 336.079 0.779999 336.425 0.779999C336.759 0.779999 337.039 0.899999 337.265 1.14C337.505 1.38 337.625 1.67333 337.625 2.02C337.625 2.36667 337.505 2.66 337.265 2.9C337.039 3.14 336.759 3.26 336.425 3.26ZM337.305 5.04V16H335.485V5.04H337.305ZM342.227 1.2V16H340.407V1.2H342.227ZM355.329 10.1C355.329 10.4467 355.309 10.8133 355.269 11.2H346.509C346.576 12.28 346.942 13.1267 347.609 13.74C348.289 14.34 349.109 14.64 350.069 14.64C350.856 14.64 351.509 14.46 352.029 14.1C352.562 13.7267 352.936 13.2333 353.149 12.62H355.109C354.816 13.6733 354.229 14.5333 353.349 15.2C352.469 15.8533 351.376 16.18 350.069 16.18C349.029 16.18 348.096 15.9467 347.269 15.48C346.456 15.0133 345.816 14.3533 345.349 13.5C344.882 12.6333 344.649 11.6333 344.649 10.5C344.649 9.36667 344.876 8.37333 345.329 7.52C345.782 6.66667 346.416 6.01333 347.229 5.56C348.056 5.09333 349.002 4.86 350.069 4.86C351.109 4.86 352.029 5.08667 352.829 5.54C353.629 5.99333 354.242 6.62 354.669 7.42C355.109 8.20667 355.329 9.1 355.329 10.1ZM353.449 9.72C353.449 9.02667 353.296 8.43333 352.989 7.94C352.682 7.43333 352.262 7.05333 351.729 6.8C351.209 6.53333 350.629 6.4 349.989 6.4C349.069 6.4 348.282 6.69333 347.629 7.28C346.989 7.86667 346.622 8.68 346.529 9.72H353.449ZM362.251 4.86C363.198 4.86 364.025 5.06667 364.731 5.48C365.451 5.89333 365.985 6.41333 366.331 7.04V5.04H368.171V16.24C368.171 17.24 367.958 18.1267 367.531 18.9C367.105 19.6867 366.491 20.3 365.691 20.74C364.905 21.18 363.985 21.4 362.931 21.4C361.491 21.4 360.291 21.06 359.331 20.38C358.371 19.7 357.805 18.7733 357.631 17.6H359.431C359.631 18.2667 360.045 18.8 360.671 19.2C361.298 19.6133 362.051 19.82 362.931 19.82C363.931 19.82 364.745 19.5067 365.371 18.88C366.011 18.2533 366.331 17.3733 366.331 16.24V13.94C365.971 14.58 365.438 15.1133 364.731 15.54C364.025 15.9667 363.198 16.18 362.251 16.18C361.278 16.18 360.391 15.94 359.591 15.46C358.805 14.98 358.185 14.3067 357.731 13.44C357.278 12.5733 357.051 11.5867 357.051 10.48C357.051 9.36 357.278 8.38 357.731 7.54C358.185 6.68667 358.805 6.02667 359.591 5.56C360.391 5.09333 361.278 4.86 362.251 4.86ZM366.331 10.5C366.331 9.67333 366.165 8.95333 365.831 8.34C365.498 7.72667 365.045 7.26 364.471 6.94C363.911 6.60667 363.291 6.44 362.611 6.44C361.931 6.44 361.311 6.6 360.751 6.92C360.191 7.24 359.745 7.70667 359.411 8.32C359.078 8.93333 358.911 9.65333 358.911 10.48C358.911 11.32 359.078 12.0533 359.411 12.68C359.745 13.2933 360.191 13.7667 360.751 14.1C361.311 14.42 361.931 14.58 362.611 14.58C363.291 14.58 363.911 14.42 364.471 14.1C365.045 13.7667 365.498 13.2933 365.831 12.68C366.165 12.0533 366.331 11.3267 366.331 10.5ZM381.247 10.1C381.247 10.4467 381.227 10.8133 381.187 11.2H372.427C372.494 12.28 372.86 13.1267 373.527 13.74C374.207 14.34 375.027 14.64 375.987 14.64C376.774 14.64 377.427 14.46 377.947 14.1C378.48 13.7267 378.854 13.2333 379.067 12.62H381.027C380.734 13.6733 380.147 14.5333 379.267 15.2C378.387 15.8533 377.294 16.18 375.987 16.18C374.947 16.18 374.014 15.9467 373.187 15.48C372.374 15.0133 371.734 14.3533 371.267 13.5C370.8 12.6333 370.567 11.6333 370.567 10.5C370.567 9.36667 370.794 8.37333 371.247 7.52C371.7 6.66667 372.334 6.01333 373.147 5.56C373.974 5.09333 374.92 4.86 375.987 4.86C377.027 4.86 377.947 5.08667 378.747 5.54C379.547 5.99333 380.16 6.62 380.587 7.42C381.027 8.20667 381.247 9.1 381.247 10.1ZM379.367 9.72C379.367 9.02667 379.214 8.43333 378.907 7.94C378.6 7.43333 378.18 7.05333 377.647 6.8C377.127 6.53333 376.547 6.4 375.907 6.4C374.987 6.4 374.2 6.69333 373.547 7.28C372.907 7.86667 372.54 8.68 372.447 9.72H379.367ZM385.529 13.48L383.289 18.86H382.069L383.529 13.48H385.529ZM393.886 3.26C393.54 3.26 393.246 3.14 393.006 2.9C392.766 2.66 392.646 2.36667 392.646 2.02C392.646 1.67333 392.766 1.38 393.006 1.14C393.246 0.899999 393.54 0.779999 393.886 0.779999C394.22 0.779999 394.5 0.899999 394.726 1.14C394.966 1.38 395.086 1.67333 395.086 2.02C395.086 2.36667 394.966 2.66 394.726 2.9C394.5 3.14 394.22 3.26 393.886 3.26ZM394.766 5.04V16H392.946V5.04H394.766ZM400.088 6.54V13C400.088 13.5333 400.201 13.9133 400.428 14.14C400.655 14.3533 401.048 14.46 401.608 14.46H402.948V16H401.308C400.295 16 399.535 15.7667 399.028 15.3C398.521 14.8333 398.268 14.0667 398.268 13V6.54H396.848V5.04H398.268V2.28H400.088V5.04H402.948V6.54H400.088ZM406.073 0.0799987L405.833 4.06H404.573L404.313 0.0799987H406.073ZM412.217 16.18C411.377 16.18 410.624 16.04 409.957 15.76C409.29 15.4667 408.764 15.0667 408.377 14.56C407.99 14.04 407.777 13.4467 407.737 12.78H409.617C409.67 13.3267 409.924 13.7733 410.377 14.12C410.844 14.4667 411.45 14.64 412.197 14.64C412.89 14.64 413.437 14.4867 413.837 14.18C414.237 13.8733 414.437 13.4867 414.437 13.02C414.437 12.54 414.224 12.1867 413.797 11.96C413.37 11.72 412.71 11.4867 411.817 11.26C411.004 11.0467 410.337 10.8333 409.817 10.62C409.31 10.3933 408.87 10.0667 408.497 9.64C408.137 9.2 407.957 8.62667 407.957 7.92C407.957 7.36 408.124 6.84667 408.457 6.38C408.79 5.91333 409.264 5.54667 409.877 5.28C410.49 5 411.19 4.86 411.977 4.86C413.19 4.86 414.17 5.16667 414.917 5.78C415.664 6.39333 416.064 7.23333 416.117 8.3H414.297C414.257 7.72667 414.024 7.26667 413.597 6.92C413.184 6.57333 412.624 6.4 411.917 6.4C411.264 6.4 410.744 6.54 410.357 6.82C409.97 7.1 409.777 7.46667 409.777 7.92C409.777 8.28 409.89 8.58 410.117 8.82C410.357 9.04667 410.65 9.23333 410.997 9.38C411.357 9.51333 411.85 9.66667 412.477 9.84C413.264 10.0533 413.904 10.2667 414.397 10.48C414.89 10.68 415.31 10.9867 415.657 11.4C416.017 11.8133 416.204 12.3533 416.217 13.02C416.217 13.62 416.05 14.16 415.717 14.64C415.384 15.12 414.91 15.5 414.297 15.78C413.697 16.0467 413.004 16.18 412.217 16.18ZM423.438 10.48C423.438 9.36 423.665 8.38 424.118 7.54C424.571 6.68667 425.191 6.02667 425.978 5.56C426.778 5.09333 427.665 4.86 428.638 4.86C429.598 4.86 430.431 5.06667 431.138 5.48C431.845 5.89333 432.371 6.41333 432.718 7.04V5.04H434.558V16H432.718V13.96C432.358 14.6 431.818 15.1333 431.098 15.56C430.391 15.9733 429.565 16.18 428.618 16.18C427.645 16.18 426.765 15.94 425.978 15.46C425.191 14.98 424.571 14.3067 424.118 13.44C423.665 12.5733 423.438 11.5867 423.438 10.48ZM432.718 10.5C432.718 9.67333 432.551 8.95333 432.218 8.34C431.885 7.72667 431.431 7.26 430.858 6.94C430.298 6.60667 429.678 6.44 428.998 6.44C428.318 6.44 427.698 6.6 427.138 6.92C426.578 7.24 426.131 7.70667 425.798 8.32C425.465 8.93333 425.298 9.65333 425.298 10.48C425.298 11.32 425.465 12.0533 425.798 12.68C426.131 13.2933 426.578 13.7667 427.138 14.1C427.698 14.42 428.318 14.58 428.998 14.58C429.678 14.58 430.298 14.42 430.858 14.1C431.431 13.7667 431.885 13.2933 432.218 12.68C432.551 12.0533 432.718 11.3267 432.718 10.5ZM444.786 6.82C445.106 6.19333 445.559 5.70667 446.146 5.36C446.746 5.01333 447.472 4.84 448.326 4.84V6.72H447.846C445.806 6.72 444.786 7.82667 444.786 10.04V16H442.966V5.04H444.786V6.82ZM460.427 10.1C460.427 10.4467 460.407 10.8133 460.367 11.2H451.607C451.673 12.28 452.04 13.1267 452.707 13.74C453.387 14.34 454.207 14.64 455.167 14.64C455.953 14.64 456.607 14.46 457.127 14.1C457.66 13.7267 458.033 13.2333 458.247 12.62H460.207C459.913 13.6733 459.327 14.5333 458.447 15.2C457.567 15.8533 456.473 16.18 455.167 16.18C454.127 16.18 453.193 15.9467 452.367 15.48C451.553 15.0133 450.913 14.3533 450.447 13.5C449.98 12.6333 449.747 11.6333 449.747 10.5C449.747 9.36667 449.973 8.37333 450.427 7.52C450.88 6.66667 451.513 6.01333 452.327 5.56C453.153 5.09333 454.1 4.86 455.167 4.86C456.207 4.86 457.127 5.08667 457.927 5.54C458.727 5.99333 459.34 6.62 459.767 7.42C460.207 8.20667 460.427 9.1 460.427 10.1ZM458.547 9.72C458.547 9.02667 458.393 8.43333 458.087 7.94C457.78 7.43333 457.36 7.05333 456.827 6.8C456.307 6.53333 455.727 6.4 455.087 6.4C454.167 6.4 453.38 6.69333 452.727 7.28C452.087 7.86667 451.72 8.68 451.627 9.72H458.547ZM467.289 6.54H464.989V16H463.169V6.54H461.749V5.04H463.169V4.26C463.169 3.03333 463.482 2.14 464.109 1.58C464.749 1.00667 465.769 0.719999 467.169 0.719999V2.24C466.369 2.24 465.802 2.4 465.469 2.72C465.149 3.02667 464.989 3.54 464.989 4.26V5.04H467.289V6.54ZM471.231 1.2V16H469.411V1.2H471.231ZM484.333 10.1C484.333 10.4467 484.313 10.8133 484.273 11.2H475.513C475.58 12.28 475.946 13.1267 476.613 13.74C477.293 14.34 478.113 14.64 479.073 14.64C479.86 14.64 480.513 14.46 481.033 14.1C481.566 13.7267 481.94 13.2333 482.153 12.62H484.113C483.82 13.6733 483.233 14.5333 482.353 15.2C481.473 15.8533 480.38 16.18 479.073 16.18C478.033 16.18 477.1 15.9467 476.273 15.48C475.46 15.0133 474.82 14.3533 474.353 13.5C473.886 12.6333 473.653 11.6333 473.653 10.5C473.653 9.36667 473.88 8.37333 474.333 7.52C474.786 6.66667 475.42 6.01333 476.233 5.56C477.06 5.09333 478.006 4.86 479.073 4.86C480.113 4.86 481.033 5.08667 481.833 5.54C482.633 5.99333 483.246 6.62 483.673 7.42C484.113 8.20667 484.333 9.1 484.333 10.1ZM482.453 9.72C482.453 9.02667 482.3 8.43333 481.993 7.94C481.686 7.43333 481.266 7.05333 480.733 6.8C480.213 6.53333 479.633 6.4 478.993 6.4C478.073 6.4 477.286 6.69333 476.633 7.28C475.993 7.86667 475.626 8.68 475.533 9.72H482.453ZM486.055 10.5C486.055 9.36667 486.282 8.38 486.735 7.54C487.189 6.68667 487.815 6.02667 488.615 5.56C489.429 5.09333 490.355 4.86 491.395 4.86C492.742 4.86 493.849 5.18667 494.715 5.84C495.595 6.49333 496.175 7.4 496.455 8.56H494.495C494.309 7.89333 493.942 7.36667 493.395 6.98C492.862 6.59333 492.195 6.4 491.395 6.4C490.355 6.4 489.515 6.76 488.875 7.48C488.235 8.18667 487.915 9.19333 487.915 10.5C487.915 11.82 488.235 12.84 488.875 13.56C489.515 14.28 490.355 14.64 491.395 14.64C492.195 14.64 492.862 14.4533 493.395 14.08C493.929 13.7067 494.295 13.1733 494.495 12.48H496.455C496.162 13.6 495.575 14.5 494.695 15.18C493.815 15.8467 492.715 16.18 491.395 16.18C490.355 16.18 489.429 15.9467 488.615 15.48C487.815 15.0133 487.189 14.3533 486.735 13.5C486.282 12.6467 486.055 11.6467 486.055 10.5ZM501.104 6.54V13C501.104 13.5333 501.217 13.9133 501.444 14.14C501.67 14.3533 502.064 14.46 502.624 14.46H503.964V16H502.324C501.31 16 500.55 15.7667 500.044 15.3C499.537 14.8333 499.284 14.0667 499.284 13V6.54H497.864V5.04H499.284V2.28H501.104V5.04H503.964V6.54H501.104ZM507.109 3.26C506.762 3.26 506.469 3.14 506.229 2.9C505.989 2.66 505.869 2.36667 505.869 2.02C505.869 1.67333 505.989 1.38 506.229 1.14C506.469 0.899999 506.762 0.779999 507.109 0.779999C507.442 0.779999 507.722 0.899999 507.949 1.14C508.189 1.38 508.309 1.67333 508.309 2.02C508.309 2.36667 508.189 2.66 507.949 2.9C507.722 3.14 507.442 3.26 507.109 3.26ZM507.989 5.04V16H506.169V5.04H507.989ZM515.871 16.18C514.844 16.18 513.911 15.9467 513.071 15.48C512.244 15.0133 511.591 14.3533 511.111 13.5C510.644 12.6333 510.411 11.6333 510.411 10.5C510.411 9.38 510.651 8.39333 511.131 7.54C511.624 6.67333 512.291 6.01333 513.131 5.56C513.971 5.09333 514.911 4.86 515.951 4.86C516.991 4.86 517.931 5.09333 518.771 5.56C519.611 6.01333 520.271 6.66667 520.751 7.52C521.244 8.37333 521.491 9.36667 521.491 10.5C521.491 11.6333 521.237 12.6333 520.731 13.5C520.237 14.3533 519.564 15.0133 518.711 15.48C517.857 15.9467 516.911 16.18 515.871 16.18ZM515.871 14.58C516.524 14.58 517.137 14.4267 517.711 14.12C518.284 13.8133 518.744 13.3533 519.091 12.74C519.451 12.1267 519.631 11.38 519.631 10.5C519.631 9.62 519.457 8.87333 519.111 8.26C518.764 7.64667 518.311 7.19333 517.751 6.9C517.191 6.59333 516.584 6.44 515.931 6.44C515.264 6.44 514.651 6.59333 514.091 6.9C513.544 7.19333 513.104 7.64667 512.771 8.26C512.437 8.87333 512.271 9.62 512.271 10.5C512.271 11.3933 512.431 12.1467 512.751 12.76C513.084 13.3733 513.524 13.8333 514.071 14.14C514.617 14.4333 515.217 14.58 515.871 14.58ZM529.224 4.84C530.557 4.84 531.637 5.24667 532.464 6.06C533.29 6.86 533.704 8.02 533.704 9.54V16H531.904V9.8C531.904 8.70667 531.63 7.87333 531.084 7.3C530.537 6.71333 529.79 6.42 528.844 6.42C527.884 6.42 527.117 6.72 526.544 7.32C525.984 7.92 525.704 8.79333 525.704 9.94V16H523.884V5.04H525.704V6.6C526.064 6.04 526.55 5.60667 527.164 5.3C527.79 4.99333 528.477 4.84 529.224 4.84ZM546.789 16.18C545.762 16.18 544.829 15.9467 543.989 15.48C543.162 15.0133 542.509 14.3533 542.029 13.5C541.562 12.6333 541.329 11.6333 541.329 10.5C541.329 9.38 541.569 8.39333 542.049 7.54C542.542 6.67333 543.209 6.01333 544.049 5.56C544.889 5.09333 545.829 4.86 546.869 4.86C547.909 4.86 548.849 5.09333 549.689 5.56C550.529 6.01333 551.189 6.66667 551.669 7.52C552.162 8.37333 552.409 9.36667 552.409 10.5C552.409 11.6333 552.155 12.6333 551.649 13.5C551.155 14.3533 550.482 15.0133 549.629 15.48C548.775 15.9467 547.829 16.18 546.789 16.18ZM546.789 14.58C547.442 14.58 548.055 14.4267 548.629 14.12C549.202 13.8133 549.662 13.3533 550.009 12.74C550.369 12.1267 550.549 11.38 550.549 10.5C550.549 9.62 550.375 8.87333 550.029 8.26C549.682 7.64667 549.229 7.19333 548.669 6.9C548.109 6.59333 547.502 6.44 546.849 6.44C546.182 6.44 545.569 6.59333 545.009 6.9C544.462 7.19333 544.022 7.64667 543.689 8.26C543.355 8.87333 543.189 9.62 543.189 10.5C543.189 11.3933 543.349 12.1467 543.669 12.76C544.002 13.3733 544.442 13.8333 544.989 14.14C545.535 14.4333 546.135 14.58 546.789 14.58ZM559.262 6.54H556.962V16H555.142V6.54H553.722V5.04H555.142V4.26C555.142 3.03333 555.455 2.14 556.082 1.58C556.722 1.00667 557.742 0.719999 559.142 0.719999V2.24C558.342 2.24 557.775 2.4 557.442 2.72C557.122 3.02667 556.962 3.54 556.962 4.26V5.04H559.262V6.54ZM571.496 16.18C570.469 16.18 569.536 15.9467 568.696 15.48C567.869 15.0133 567.216 14.3533 566.736 13.5C566.269 12.6333 566.036 11.6333 566.036 10.5C566.036 9.38 566.276 8.39333 566.756 7.54C567.249 6.67333 567.916 6.01333 568.756 5.56C569.596 5.09333 570.536 4.86 571.576 4.86C572.616 4.86 573.556 5.09333 574.396 5.56C575.236 6.01333 575.896 6.66667 576.376 7.52C576.869 8.37333 577.116 9.36667 577.116 10.5C577.116 11.6333 576.862 12.6333 576.356 13.5C575.862 14.3533 575.189 15.0133 574.336 15.48C573.482 15.9467 572.536 16.18 571.496 16.18ZM571.496 14.58C572.149 14.58 572.762 14.4267 573.336 14.12C573.909 13.8133 574.369 13.3533 574.716 12.74C575.076 12.1267 575.256 11.38 575.256 10.5C575.256 9.62 575.082 8.87333 574.736 8.26C574.389 7.64667 573.936 7.19333 573.376 6.9C572.816 6.59333 572.209 6.44 571.556 6.44C570.889 6.44 570.276 6.59333 569.716 6.9C569.169 7.19333 568.729 7.64667 568.396 8.26C568.062 8.87333 567.896 9.62 567.896 10.5C567.896 11.3933 568.056 12.1467 568.376 12.76C568.709 13.3733 569.149 13.8333 569.696 14.14C570.242 14.4333 570.842 14.58 571.496 14.58ZM589.229 5.04V16H587.409V14.38C587.062 14.94 586.575 15.38 585.949 15.7C585.335 16.0067 584.655 16.16 583.909 16.16C583.055 16.16 582.289 15.9867 581.609 15.64C580.929 15.28 580.389 14.7467 579.989 14.04C579.602 13.3333 579.409 12.4733 579.409 11.46V5.04H581.209V11.22C581.209 12.3 581.482 13.1333 582.029 13.72C582.575 14.2933 583.322 14.58 584.269 14.58C585.242 14.58 586.009 14.28 586.569 13.68C587.129 13.08 587.409 12.2067 587.409 11.06V5.04H589.229ZM594.122 6.82C594.442 6.19333 594.895 5.70667 595.482 5.36C596.082 5.01333 596.808 4.84 597.662 4.84V6.72H597.182C595.142 6.72 594.122 7.82667 594.122 10.04V16H592.302V5.04H594.122V6.82ZM609.555 6.54H607.255V16H605.435V6.54H604.015V5.04H605.435V4.26C605.435 3.03333 605.748 2.14 606.375 1.58C607.015 1.00667 608.035 0.719999 609.435 0.719999V2.24C608.635 2.24 608.068 2.4 607.735 2.72C607.415 3.02667 607.255 3.54 607.255 4.26V5.04H609.555V6.54ZM613.497 6.82C613.817 6.19333 614.27 5.70667 614.857 5.36C615.457 5.01333 616.183 4.84 617.037 4.84V6.72H616.557C614.517 6.72 613.497 7.82667 613.497 10.04V16H611.677V5.04H613.497V6.82ZM629.138 10.1C629.138 10.4467 629.118 10.8133 629.078 11.2H620.318C620.384 12.28 620.751 13.1267 621.418 13.74C622.098 14.34 622.918 14.64 623.878 14.64C624.664 14.64 625.318 14.46 625.838 14.1C626.371 13.7267 626.744 13.2333 626.958 12.62H628.918C628.624 13.6733 628.038 14.5333 627.158 15.2C626.278 15.8533 625.184 16.18 623.878 16.18C622.838 16.18 621.904 15.9467 621.078 15.48C620.264 15.0133 619.624 14.3533 619.158 13.5C618.691 12.6333 618.458 11.6333 618.458 10.5C618.458 9.36667 618.684 8.37333 619.138 7.52C619.591 6.66667 620.224 6.01333 621.038 5.56C621.864 5.09333 622.811 4.86 623.878 4.86C624.918 4.86 625.838 5.08667 626.638 5.54C627.438 5.99333 628.051 6.62 628.478 7.42C628.918 8.20667 629.138 9.1 629.138 10.1ZM627.258 9.72C627.258 9.02667 627.104 8.43333 626.798 7.94C626.491 7.43333 626.071 7.05333 625.538 6.8C625.018 6.53333 624.438 6.4 623.798 6.4C622.878 6.4 622.091 6.69333 621.438 7.28C620.798 7.86667 620.431 8.68 620.338 9.72H627.258ZM641.54 10.1C641.54 10.4467 641.52 10.8133 641.48 11.2H632.72C632.787 12.28 633.153 13.1267 633.82 13.74C634.5 14.34 635.32 14.64 636.28 14.64C637.067 14.64 637.72 14.46 638.24 14.1C638.773 13.7267 639.147 13.2333 639.36 12.62H641.32C641.027 13.6733 640.44 14.5333 639.56 15.2C638.68 15.8533 637.587 16.18 636.28 16.18C635.24 16.18 634.307 15.9467 633.48 15.48C632.667 15.0133 632.027 14.3533 631.56 13.5C631.093 12.6333 630.86 11.6333 630.86 10.5C630.86 9.36667 631.087 8.37333 631.54 7.52C631.993 6.66667 632.627 6.01333 633.44 5.56C634.267 5.09333 635.213 4.86 636.28 4.86C637.32 4.86 638.24 5.08667 639.04 5.54C639.84 5.99333 640.453 6.62 640.88 7.42C641.32 8.20667 641.54 9.1 641.54 10.1ZM639.66 9.72C639.66 9.02667 639.507 8.43333 639.2 7.94C638.893 7.43333 638.473 7.05333 637.94 6.8C637.42 6.53333 636.84 6.4 636.2 6.4C635.28 6.4 634.493 6.69333 633.84 7.28C633.2 7.86667 632.833 8.68 632.74 9.72H639.66ZM643.262 10.48C643.262 9.36 643.489 8.38 643.942 7.54C644.396 6.68667 645.016 6.02667 645.802 5.56C646.602 5.09333 647.496 4.86 648.482 4.86C649.336 4.86 650.129 5.06 650.862 5.46C651.596 5.84667 652.156 6.36 652.542 7V1.2H654.382V16H652.542V13.94C652.182 14.5933 651.649 15.1333 650.942 15.56C650.236 15.9733 649.409 16.18 648.462 16.18C647.489 16.18 646.602 15.94 645.802 15.46C645.016 14.98 644.396 14.3067 643.942 13.44C643.489 12.5733 643.262 11.5867 643.262 10.48ZM652.542 10.5C652.542 9.67333 652.376 8.95333 652.042 8.34C651.709 7.72667 651.256 7.26 650.682 6.94C650.122 6.60667 649.502 6.44 648.822 6.44C648.142 6.44 647.522 6.6 646.962 6.92C646.402 7.24 645.956 7.70667 645.622 8.32C645.289 8.93333 645.122 9.65333 645.122 10.48C645.122 11.32 645.289 12.0533 645.622 12.68C645.956 13.2933 646.402 13.7667 646.962 14.1C647.522 14.42 648.142 14.58 648.822 14.58C649.502 14.58 650.122 14.42 650.682 14.1C651.256 13.7667 651.709 13.2933 652.042 12.68C652.376 12.0533 652.542 11.3267 652.542 10.5ZM662.238 16.18C661.211 16.18 660.278 15.9467 659.438 15.48C658.611 15.0133 657.958 14.3533 657.478 13.5C657.011 12.6333 656.778 11.6333 656.778 10.5C656.778 9.38 657.018 8.39333 657.498 7.54C657.991 6.67333 658.658 6.01333 659.498 5.56C660.338 5.09333 661.278 4.86 662.318 4.86C663.358 4.86 664.298 5.09333 665.138 5.56C665.978 6.01333 666.638 6.66667 667.118 7.52C667.611 8.37333 667.858 9.36667 667.858 10.5C667.858 11.6333 667.605 12.6333 667.098 13.5C666.605 14.3533 665.931 15.0133 665.078 15.48C664.225 15.9467 663.278 16.18 662.238 16.18ZM662.238 14.58C662.891 14.58 663.505 14.4267 664.078 14.12C664.651 13.8133 665.111 13.3533 665.458 12.74C665.818 12.1267 665.998 11.38 665.998 10.5C665.998 9.62 665.825 8.87333 665.478 8.26C665.131 7.64667 664.678 7.19333 664.118 6.9C663.558 6.59333 662.951 6.44 662.298 6.44C661.631 6.44 661.018 6.59333 660.458 6.9C659.911 7.19333 659.471 7.64667 659.138 8.26C658.805 8.87333 658.638 9.62 658.638 10.5C658.638 11.3933 658.798 12.1467 659.118 12.76C659.451 13.3733 659.891 13.8333 660.438 14.14C660.985 14.4333 661.585 14.58 662.238 14.58ZM683.431 4.84C684.284 4.84 685.044 5.02 685.711 5.38C686.378 5.72667 686.904 6.25333 687.291 6.96C687.678 7.66667 687.871 8.52667 687.871 9.54V16H686.071V9.8C686.071 8.70667 685.798 7.87333 685.251 7.3C684.718 6.71333 683.991 6.42 683.071 6.42C682.124 6.42 681.371 6.72667 680.811 7.34C680.251 7.94 679.971 8.81333 679.971 9.96V16H678.171V9.8C678.171 8.70667 677.898 7.87333 677.351 7.3C676.818 6.71333 676.091 6.42 675.171 6.42C674.224 6.42 673.471 6.72667 672.911 7.34C672.351 7.94 672.071 8.81333 672.071 9.96V16H670.251V5.04H672.071V6.62C672.431 6.04667 672.911 5.60667 673.511 5.3C674.124 4.99333 674.798 4.84 675.531 4.84C676.451 4.84 677.264 5.04667 677.971 5.46C678.678 5.87333 679.204 6.48 679.551 7.28C679.858 6.50667 680.364 5.90667 681.071 5.48C681.778 5.05333 682.564 4.84 683.431 4.84ZM691.436 16.12C691.09 16.12 690.796 16 690.556 15.76C690.316 15.52 690.196 15.2267 690.196 14.88C690.196 14.5333 690.316 14.24 690.556 14C690.796 13.76 691.09 13.64 691.436 13.64C691.77 13.64 692.05 13.76 692.276 14C692.516 14.24 692.636 14.5333 692.636 14.88C692.636 15.2267 692.516 15.52 692.276 15.76C692.05 16 691.77 16.12 691.436 16.12ZM695.936 0.0799987L695.716 4.06H694.456L694.216 0.0799987H695.936ZM698.636 0.0799987L698.416 4.06H697.156L696.916 0.0799987H698.636Z" fill="white"/>
</svg>
